[Header]
FileType HTR
DataType HTRS
FileVersion 1
NumSegments 22
NumFrames 5
DataFrameRate 24
EulerRotationOrder ZYX
CalibrationUnits mm
RotationUnits Degrees
GlobalAxisofGravity Y
BoneLengthAxis Y
ScaleFactor 1.0
[SegmentNames&Hierarchy]
reference	GLOBAL
Hips	reference
Spine	Hips
Spine1	Spine
Neck	Spine1
Head	Neck
LeftShoulder	Spine1
LeftArm	LeftShoulder
LeftForeArm	LeftArm
LeftHand	LeftForeArm
RightShoulder	Spine1
RightArm	RightShoulder
RightForeArm	RightArm
RightHand	RightForeArm
LeftUpLeg	Hips
LeftLeg	LeftUpLeg
LeftFoot	LeftLeg
LeftToeBase	LeftFoot
RightUpLeg	Hips
RightLeg	RightUpLeg
RightFoot	RightLeg
RightToeBase	RightFoot
[BasePosition]
reference	0	0	0	0	0	0	1
Hips	0	0	0	0	0	0	1
Spine	0	0	0	0	-0	90	1
Spine1	0	0	0	0	0	0	1
Neck	0	0	0	-7.352327771	-7.352327771	90	1
Head	0	0	0	0	-0	90	1
LeftShoulder	0	0	0	0	0	0	1
LeftArm	0	0	0	0	0	0	1
LeftForeArm	0	0	0	0	0	0	1
LeftHand	0	0	0	0	0	0	1
RightShoulder	0	0	0	0	-0	180	1
RightArm	0	0	0	0	-0	180	1
RightForeArm	0	0	0	0	-0	180	1
RightHand	0	0	0	0	-0	180	1
LeftUpLeg	0	0	0	0	-0	-90	1
LeftLeg	0	0	0	0	-0	-90	1
LeftFoot	0	0	0	66.57146043	-66.57146043	-90	1
LeftToeBase	0	0	0	0	-90	0	1
RightUpLeg	0	0	0	0	-0	-90	1
RightLeg	0	0	0	0	-0	-90	1
RightFoot	0	0	0	66.57146043	-66.57146043	-90	1
RightToeBase	0	0	0	0	-90	0	1
[reference]
37	0	0	0	0	-0	0	1.0
38	0	0	0	0	-0	0	1.0
39	0	0	0	0	-0	0	1.0
40	0	0	0	0	-0	0	1.0
41	0	0	0	0	-0	0	1.0
[Hips]
37	-0.5366083384	8.958680153	4.206280231	-1.975921631	-104.6533585	7.138076782	1.0
38	-0.4608872831	9.193190575	4.021964073	-5.914561272	-106.6047363	11.40254116	1.0
39	-0.4223709106	9.237960815	3.840332985	-8.851756096	-110.1823044	13.91841984	1.0
40	-0.4012525678	9.210611343	3.658396721	-11.38974571	-113.8046417	15.87405777	1.0
41	-0.3837949634	8.954566956	3.480261803	-12.4926672	-116.78936	16.56700134	1.0
[Spine]
37	0	0.7457100153	0	-5.975667953	-0.1051604599	-90.92706299	1.0
38	0	0.7457100153	0	-4.988217831	-0.3467951119	-90.85598755	1.0
39	0	0.7457100153	0	-3.519522667	0.8579119444	-90.58435059	1.0
40	0	0.7457100153	0	-1.862029433	1.569308281	-89.26075745	1.0
41	0	0.7457100153	0	-3.888840199	1.427310348	-88.04281616	1.0
[Spine1]
37	0	2.140589952	0	5.735922813	0.02856525779	-0.9525177479	1.0
38	0	2.140589952	0	4.457249641	-0.1220016256	0.4876216352	1.0
39	0	2.140589952	0	1.959968686	0.2444920838	1.327694893	1.0
40	0	2.140589952	0	-0.5217279792	0.4712132812	2.406805992	1.0
41	0	2.140589952	0	2.308193207	0.3782282472	3.511001587	1.0
[Neck]
37	0	2.32246995	0	-17.63687515	-2.731658697	-88.36933136	1.0
38	0	2.32246995	0	-17.23871994	-1.889093518	-88.48300171	1.0
39	0	2.32246995	0	-16.79715157	-1.285991669	-88.48960114	1.0
40	0	2.32246995	0	-15.80662155	-1.884747148	-88.02768707	1.0
41	0	2.32246995	0	-14.05429649	0.1440955698	-88.16252136	1.0
[Head]
37	0	1.409579992	0.1818799973	-3.809012175	0.4045643806	-93.25575256	1.0
38	0	1.409579992	0.1818799973	-3.453776836	-0.02854350582	-88.8693924	1.0
39	0	1.409579992	0.1818799973	-1.088091135	-0.3558487296	-86.68664551	1.0
40	0	1.409579992	0.1818799973	5.538394928	-0.1415216029	-89.18001556	1.0
41	0	1.409579992	0.1818799973	1.975145578	0.8086527586	-92.86946106	1.0
[LeftShoulder]
37	0.3668199778	1.946700096	-0.02662999928	-17.63648033	-11.86630344	-1.171159863	1.0
38	0.3668199778	1.946700096	-0.02662999928	-17.46775818	-12.25656128	-1.05205512	1.0
39	0.3668199778	1.946700096	-0.02662999928	-16.03422356	-13.47227001	-2.251699686	1.0
40	0.3668199778	1.946700096	-0.02662999928	-14.81278419	-12.975914	-3.453304052	1.0
41	0.3668199778	1.946700096	-0.02662999928	-18.65636635	-11.11719704	-1.063158512	1.0
[LeftArm]
37	1.140689969	0	0	46.99901581	9.888662338	-68.90107727	1.0
38	1.140689969	0	0	47.82225037	10.57939911	-69.40908813	1.0
39	1.140689969	0	0	47.78003311	10.75041771	-68.07679749	1.0
40	1.140689969	0	0	47.7602005	10.60915947	-67.46261597	1.0
41	1.140689969	0	0	48.54455566	11.79394913	-70.34540558	1.0
[LeftForeArm]
37	2.749800205	0	0	-140.1607971	-45.74324417	159.9315948	1.0
38	2.749800205	0	0	-139.8939667	-45.29979706	159.56633	1.0
39	2.749800205	0	0	-139.8718262	-44.87961578	159.790451	1.0
40	2.749800205	0	0	-140.2217712	-45.07731247	159.9306641	1.0
41	2.749800205	0	0	-139.775589	-45.32483292	159.6610718	1.0
[LeftHand]
37	2.295179844	0	0	-6.502172947	-22.75506783	4.135155201	1.0
38	2.295179844	0	0	-7.708916664	-22.9393959	5.407019138	1.0
39	2.295179844	0	0	-7.864933491	-22.98140717	6.45497036	1.0
40	2.295179844	0	0	-7.750161171	-22.93312836	6.633185863	1.0
41	2.295179844	0	0	-7.585101128	-22.65777397	6.563764572	1.0
[RightShoulder]
37	-0.3601199985	1.946700096	-0.02662999928	-9.357016563	4.048259258	175.4271088	1.0
38	-0.3601199985	1.946700096	-0.02662999928	-7.175551414	4.245797157	176.8592834	1.0
39	-0.3601199985	1.946700096	-0.02662999928	-8.689007759	3.730007648	176.860611	1.0
40	-0.3601199985	1.946700096	-0.02662999928	-6.519346714	3.478285789	178.7534637	1.0
41	-0.3601199985	1.946700096	-0.02662999928	-10.57914257	2.408315897	175.9801331	1.0
[RightArm]
37	-1.140689969	0	0	55.88246918	0.01223810948	-106.1826401	1.0
38	-1.140689969	0	0	55.9024086	1.649510026	-107.7404938	1.0
39	-1.140689969	0	0	57.43010712	-0.9135115743	-107.4085236	1.0
40	-1.140689969	0	0	58.31681061	-0.2014502883	-108.9718704	1.0
41	-1.140689969	0	0	58.30622101	-0.5111775994	-106.6014786	1.0
[RightForeArm]
37	-2.749800205	0	0	-107.3673248	47.90821838	-326.071106	1.0
38	-2.749800205	0	0	-106.7957916	46.95147705	-325.9457092	1.0
39	-2.749800205	0	0	-104.6168671	46.26652527	-324.6322021	1.0
40	-2.749800205	0	0	-103.4358826	45.85710526	-323.8657227	1.0
41	-2.749800205	0	0	-106.0197144	47.45933914	-325.0371094	1.0
[RightHand]
37	-2.295179844	0	0	0.1332249045	19.82504463	-200.1174774	1.0
38	-2.295179844	0	0	-0.550760448	19.56210327	-199.4266052	1.0
39	-2.295179844	0	0	-1.606891394	19.9227562	-199.8232117	1.0
40	-2.295179844	0	0	-2.004750252	19.78354836	-198.7290497	1.0
41	-2.295179844	0	0	-0.6268099546	19.54829407	-199.3784485	1.0
[LeftUpLeg]
37	0.9094099998	0	0	-13.52629662	11.39180565	98.15097046	1.0
38	0.9094099998	0	0	-13.72765732	12.11974239	96.10273743	1.0
39	0.9094099998	0	0	-9.758530617	10.19040966	95.28981018	1.0
40	0.9094099998	0	0	-4.612893581	8.13152504	94.78661346	1.0
41	0.9094099998	0	0	-0.7951112986	7.363492012	95.06274414	1.0
[LeftLeg]
37	0	-4.498080254	0	34.40071869	-4.504975796	77.82203674	1.0
38	0	-4.498080254	0	36.08640671	-4.714465141	76.4151001	1.0
39	0	-4.498080254	0	28.02961349	-2.323975086	79.7911377	1.0
40	0	-4.498080254	0	19.58602524	1.04478395	83.16333008	1.0
41	0	-4.498080254	0	15.91441059	6.665274143	85.48859406	1.0
[LeftFoot]
37	0	-3.729400158	0	-47.72384644	107.5880966	0.4017944336	1.0
38	0	-3.729400158	0	-10.6658783	102.0435562	31.74675179	1.0
39	0	-3.729400158	0	2.46518755	97.98586273	34.20145416	1.0
40	0	-3.729400158	0	-47.77095795	104.2720566	-14.67579365	1.0
41	0	-3.729400158	0	-70.59846497	105.4302292	-26.47476196	1.0
[LeftToeBase]
37	0	-0.5911099911	1.364109993	0	0	0	1.0
38	0	-0.5911099911	1.364109993	0	0	0	1.0
39	0	-0.5911099911	1.364109993	0	0	0	1.0
40	0	-0.5911099911	1.364109993	0	0	0	1.0
41	0	-0.5911099911	1.364109993	0	0	0	1.0
[RightUpLeg]
37	-0.9094099998	0	0	-13.14719009	-19.35997963	95.1688385	1.0
38	-0.9094099998	0	0	-13.77068329	-20.23059082	95.40361023	1.0
39	-0.9094099998	0	0	-14.32687187	-18.73798752	94.61549377	1.0
40	-0.9094099998	0	0	-14.2066288	-18.80945015	93.00118256	1.0
41	-0.9094099998	0	0	-13.80246449	-22.90081978	90.54878235	1.0
[RightLeg]
37	0	-4.498080254	0	29.5891037	2.91403985	84.44868469	1.0
38	0	-4.498080254	0	27.51402664	0.7593570352	86.00048828	1.0
39	0	-4.498080254	0	28.46396255	-0.4539989531	86.03627014	1.0
40	0	-4.498080254	0	29.48249245	-3.775550842	83.25170898	1.0
41	0	-4.498080254	0	27.5748291	-6.80232954	79.53578186	1.0
[RightFoot]
37	0	-3.729400158	0	90.87155914	55.38805389	121.5284348	1.0
38	0	-3.729400158	0	104.9877014	43.7952919	119.4039154	1.0
39	0	-3.729400158	0	102.4496307	35.32537079	113.2949524	1.0
40	0	-3.729400158	0	85.17595673	40.28190231	104.9145813	1.0
41	0	-3.729400158	0	82.64808655	49.19657898	108.9476471	1.0
[RightToeBase]
37	0	-0.5911099911	1.364109993	0	0	0	1.0
38	0	-0.5911099911	1.364109993	0	0	0	1.0
39	0	-0.5911099911	1.364109993	0	0	0	1.0
40	0	-0.5911099911	1.364109993	0	0	0	1.0
41	0	-0.5911099911	1.364109993	0	0	0	1.0
[EndOfFile]
